<svg width="253" height="253" viewBox="0 0 253 253" fill="none" xmlns="http://www.w3.org/2000/svg">
<g clip-path="url(#clip0_1_2)">
<path d="M187.569 0H65.431C29.2945 0 0 29.2945 0 65.431V187.569C0 223.706 29.2945 253 65.431 253H187.569C223.706 253 253 223.706 253 187.569V65.431C253 29.2945 223.706 0 187.569 0Z" fill="#00DEA3"/>
<path d="M171.087 137.233C171.667 138.855 172.072 140.709 172.304 142.796C172.652 144.766 172.826 146.794 172.826 148.88C172.826 150.966 172.652 153.053 172.304 155.139C172.072 157.109 171.724 158.847 171.261 160.354C169.407 166.844 165.698 172.291 160.135 176.696C154.572 180.984 148.197 184.113 141.012 186.083C133.942 188.054 126.582 188.749 118.933 188.169C111.4 187.59 104.678 185.678 98.767 182.433C95.0584 180.346 91.8713 177.797 89.2056 174.783C86.5399 171.77 84.28 168.409 82.4256 164.7C81.7303 163.425 81.2666 161.977 81.0348 160.354C80.919 158.616 81.0928 156.993 81.5563 155.486C82.02 153.864 82.7733 152.473 83.8163 151.314C84.8595 150.039 86.3081 149.17 88.1626 148.706C89.3214 148.475 90.5964 148.359 91.9871 148.359C93.4937 148.359 94.9426 148.591 96.3332 149.054C97.7241 149.402 98.9989 150.039 100.158 150.966C101.317 151.778 102.244 152.937 102.939 154.443C104.214 156.877 106.011 159.137 108.329 161.223C110.763 163.193 113.312 164.816 115.978 166.091C119.802 167.366 123.627 167.887 127.452 167.656C131.392 167.424 134.927 166.555 138.056 165.048C141.301 163.541 143.909 161.513 145.879 158.963C147.85 156.298 148.835 153.284 148.835 149.923C148.835 147.142 148.429 144.882 147.618 143.143C146.806 141.289 145.647 139.782 144.141 138.623C142.75 137.348 141.012 136.305 138.926 135.494C136.955 134.683 134.753 133.987 132.319 133.408C129.538 132.828 126.698 132.423 123.801 132.191C121.019 131.959 118.18 131.669 115.282 131.322C112.385 130.974 109.545 130.51 106.764 129.931C103.983 129.351 101.259 128.482 98.5932 127.323C93.2621 125.121 89.2056 121.76 86.4241 117.24C83.6424 112.72 81.9619 107.853 81.3824 102.637C80.919 97.4218 81.5563 92.2643 83.2948 87.1648C85.0333 81.9495 87.8148 77.4875 91.6394 73.7787C95.348 70.4177 99.7522 68.0419 104.852 66.6511C110.067 65.1444 115.804 64.2753 122.062 64.0434C125.539 63.9274 129.016 64.0434 132.493 64.3911C136.086 64.7387 139.505 65.3182 142.75 66.1296C146.111 66.9407 149.183 67.9839 151.964 69.2587C154.861 70.5335 157.353 72.0404 159.439 73.7787C160.946 74.9377 162.453 76.5024 163.959 78.4725C165.466 80.327 166.625 82.3552 167.436 84.5571C168.248 86.6433 168.479 88.6717 168.132 90.6418C167.9 92.6121 166.683 94.2926 164.481 95.6833C162.627 96.8423 160.83 97.364 159.092 97.2479C157.469 97.0161 155.904 96.4946 154.398 95.6833C152.891 94.7561 151.442 93.7131 150.052 92.5541C148.661 91.3951 147.386 90.3521 146.227 89.425C143.098 87.107 139.215 85.5423 134.579 84.731C129.943 83.9198 125.597 83.746 121.541 84.2095C118.991 84.5571 116.615 85.1366 114.413 85.948C112.211 86.7593 110.299 87.8603 108.676 89.2509C107.17 90.6418 105.953 92.3803 105.026 94.4665C104.214 96.4366 103.925 98.6966 104.156 101.246C104.272 103.101 104.794 104.665 105.721 105.94C106.764 107.215 107.981 108.258 109.372 109.07C110.878 109.881 112.501 110.518 114.24 110.982C115.978 111.445 117.716 111.793 119.455 112.025C124.67 112.72 129.886 113.242 135.101 113.59C140.316 113.937 145.416 115.096 150.399 117.066C155.499 119.037 159.845 121.702 163.438 125.063C167.031 128.424 169.58 132.481 171.087 137.233Z" fill="#2A364E"/>
</g>
<defs>
<clipPath id="clip0_1_2">
<rect width="253" height="253" fill="white"/>
</clipPath>
</defs>
</svg>
